<?xml version="1.0" encoding="UTF-8"?>
<svg xmlns="http://www.w3.org/2000/svg" width="200" height="200" viewBox="0 0 200 200" fill="none">
  <circle cx="99.5" cy="99.5" r="97.5" fill="#E27B53"></circle>
  <g clip-path="url(#clip0_1_21)">
    <path d="M102.033 60.0126C101.315 60.0126 100.597 60 99.8663 60C99.1357 60 98.4178 60 97.6872 60.0126C64.6992 60.3023 50 67.0788 50 69.6987V80.3798C50.466 80.1153 51.0077 79.9516 51.5871 79.9516C52.8718 79.9516 54.0432 80.3924 55.0005 81.1104C55.7058 79.6367 57.2047 78.6038 58.9429 78.6038C61.2479 78.6038 63.364 79.4477 65.0015 80.8459C65.3667 81.1607 65.7068 81.5008 66.0217 81.8661C66.8908 79.8256 68.9187 78.3897 71.2741 78.3897C75.1158 78.3897 78.5166 80.3042 80.5949 83.2264C81.8545 80.1405 84.8774 77.9488 88.4168 77.9488C93.3921 77.9488 97.7124 80.7955 99.8537 84.9269C101.995 80.7829 106.315 77.9488 111.291 77.9488C114.83 77.9488 117.853 80.1279 119.113 83.2264C121.191 80.3042 124.592 78.3897 128.433 78.3897C130.789 78.3897 132.817 79.8256 133.686 81.8661C134.001 81.5008 134.341 81.1607 134.706 80.8459C136.343 79.4477 138.447 78.6038 140.764 78.6038C142.503 78.6038 144.002 79.6367 144.707 81.1104C145.664 80.3924 146.836 79.9516 148.12 79.9516C148.7 79.9516 149.241 80.1153 149.707 80.3798V69.6987C149.72 67.0788 135.021 60.3023 102.033 60.0126Z" fill="white"></path>
    <path d="M141.193 119.124C140.097 119.124 139.089 118.797 138.22 118.268V120.384C138.22 122.802 136.255 124.78 133.824 124.78C131.204 124.78 128.824 123.684 127.123 121.946V122.198C127.123 125.032 124.818 127.337 121.984 127.337C118.848 127.337 116.052 125.901 114.188 123.671C113.155 126.757 110.245 128.987 106.819 128.987C103.897 128.987 101.34 127.462 99.8537 125.183C98.38 127.462 95.8105 128.987 92.8883 128.987C89.4623 128.987 86.5527 126.757 85.5198 123.671C83.6557 125.913 80.8594 127.337 77.7231 127.337C74.8891 127.337 72.5841 125.032 72.5841 122.198V121.946C70.8836 123.696 68.5157 124.78 65.8832 124.78C63.4648 124.78 61.4873 122.815 61.4873 120.384V118.268C60.6182 118.797 59.6105 119.124 58.5147 119.124C57.3055 119.124 56.2601 118.457 55.7058 117.474L54.7612 119.464V130.07C54.7612 134.1 71.9165 139.731 99.8411 139.731C127.766 139.731 144.921 134.1 144.921 130.07V119.464L143.976 117.474C143.422 118.457 142.377 119.124 141.168 119.124H141.193Z" fill="white"></path>
    <path d="M98.4808 89.6124C97.8888 84.5867 93.6062 80.6694 88.4294 80.6694C85.2805 80.6694 82.7236 83.2264 82.7236 86.3753V98.3916C82.7236 100.155 84.1469 101.578 85.9103 101.578H96.8181C97.6243 101.578 98.2666 101.024 98.4682 100.281C98.4556 100.13 98.4178 99.9912 98.4178 99.8275V90.7838C98.4178 90.3807 98.443 89.9902 98.4808 89.5998V89.6124Z" fill="white"></path>
    <path d="M71.2741 81.123C69.6367 81.123 68.3015 82.4582 68.3015 84.0956V96.0993C68.3015 97.6234 69.5359 98.8578 71.06 98.8578H77.2696C78.7559 98.8578 79.9651 97.6486 79.9651 96.1623V89.8267C79.9651 85.0277 76.0605 81.123 71.2615 81.123H71.2741Z" fill="white"></path>
    <path d="M62.5327 82.4075C61.4999 81.74 60.2655 81.3369 58.9429 81.3369C58.0361 81.3369 57.2929 82.0801 57.2929 82.9869V95.3181C57.2929 96.3006 58.0864 97.0941 59.0689 97.0941H63.8175C64.7747 97.0941 65.5557 96.3132 65.5557 95.3559V87.9496C65.5557 85.632 64.3465 83.5915 62.5327 82.4075Z" fill="white"></path>
    <path d="M51.5871 82.6724C51.31 82.6724 51.0833 82.8991 51.0833 83.1762V92.9378C51.0833 93.5172 51.5619 93.9959 52.1413 93.9959H54.1566C54.3707 93.9959 54.5345 93.8195 54.5345 93.618V85.6449C54.5345 84.0075 53.1993 82.685 51.5745 82.685L51.5871 82.6724Z" fill="white"></path>
    <path d="M111.291 80.6821C106.114 80.6821 101.831 84.5994 101.239 89.6251C101.189 90.0155 101.164 90.406 101.164 90.8091V99.8528C101.164 100.016 101.214 100.155 101.252 100.306C101.453 101.049 102.096 101.604 102.902 101.604H113.81C115.573 101.604 116.996 100.168 116.996 98.4168V86.4006C116.996 83.2516 114.439 80.6947 111.291 80.6947V80.6821Z" fill="white"></path>
    <path d="M128.433 81.123C123.634 81.123 119.73 85.0277 119.73 89.8267V96.1623C119.73 97.6486 120.939 98.8578 122.425 98.8578H128.635C130.159 98.8578 131.393 97.6234 131.393 96.0993V84.0956C131.393 82.4582 130.058 81.123 128.433 81.123Z" fill="white"></path>
    <path d="M142.415 95.3181V82.9869C142.415 82.0801 141.671 81.3369 140.764 81.3369C139.442 81.3369 138.208 81.74 137.175 82.4075C135.361 83.5915 134.152 85.6194 134.152 87.9496V95.3559C134.152 96.3132 134.933 97.0941 135.89 97.0941H140.639C141.621 97.0941 142.415 96.3006 142.415 95.3181Z" fill="white"></path>
    <path d="M148.12 82.6723C146.483 82.6723 145.16 84.0074 145.16 85.6322V93.6053C145.16 93.8194 145.337 93.9832 145.538 93.9832H147.554C148.133 93.9832 148.612 93.5045 148.612 92.9251V83.1635C148.612 82.8864 148.385 82.6597 148.108 82.6597L148.12 82.6723Z" fill="white"></path>
    <path d="M89.2482 109.501C88.6562 109.501 88.1523 109.879 87.9508 110.408C87.8878 110.559 87.85 110.723 87.85 110.899V121.202C87.85 123.973 90.1047 126.241 92.8883 126.241C95.9491 126.241 98.443 123.747 98.443 120.686V110.068C98.443 109.765 98.1911 109.514 97.8888 109.514H89.2482V109.501Z" fill="white"></path>
    <path d="M76.3879 109.035C75.8967 109.337 75.5314 109.828 75.3929 110.408C75.3551 110.572 75.3299 110.748 75.3299 110.924V122.185C75.3299 123.507 76.4131 124.591 77.7357 124.591C81.8167 124.591 85.1293 121.278 85.1293 117.197V110.899C85.1293 110.71 85.1041 110.559 85.079 110.408C84.953 109.828 84.5877 109.337 84.1091 109.035C83.7816 108.821 83.3911 108.695 82.9629 108.695H77.5593C77.1311 108.695 76.7406 108.821 76.4005 109.035H76.3879Z" fill="white"></path>
    <path d="M64.2331 108.821V120.384C64.2331 121.291 64.9762 122.034 65.8831 122.034C69.5233 122.034 72.4959 119.074 72.4959 115.421V109.274C72.4959 109.186 72.4581 109.123 72.4455 109.035C72.3195 108.191 71.6268 107.536 70.7577 107.536C70.7073 107.536 70.6695 107.536 70.6191 107.536L65.9461 107.058C65.0014 107.083 64.2331 107.876 64.2331 108.834V108.821Z" fill="white"></path>
    <path d="M60.0891 105.496L58.8925 105.067C58.4013 105.156 58.0234 105.596 58.0234 106.113V115.874C58.0234 116.152 58.2502 116.366 58.5273 116.366C60.1647 116.366 61.4872 115.031 61.4872 113.406V106.516C61.4872 105.999 61.0716 105.584 60.5552 105.584C60.404 105.584 60.2403 105.559 60.0891 105.508V105.496Z" fill="white"></path>
    <path d="M110.459 109.501H101.819C101.516 109.501 101.264 109.753 101.264 110.055V120.673C101.264 123.734 103.758 126.228 106.819 126.228C109.59 126.228 111.857 123.973 111.857 121.19V110.886C111.857 110.71 111.82 110.546 111.757 110.395C111.555 109.866 111.051 109.488 110.459 109.488V109.501Z" fill="white"></path>
    <path d="M115.624 109.035C115.132 109.337 114.78 109.828 114.654 110.408C114.616 110.559 114.603 110.71 114.603 110.874V117.197C114.603 121.278 117.916 124.591 121.997 124.591C123.319 124.591 124.403 123.507 124.403 122.185V110.924C124.403 110.748 124.378 110.572 124.34 110.408C124.201 109.828 123.836 109.337 123.345 109.035C123.005 108.821 122.614 108.695 122.186 108.695H116.782C116.367 108.695 115.976 108.821 115.636 109.035H115.624Z" fill="white"></path>
    <path d="M129.101 107.523C129.101 107.523 129.013 107.523 128.962 107.523C128.093 107.523 127.388 108.178 127.275 109.022C127.275 109.098 127.224 109.173 127.224 109.262V115.408C127.224 119.049 130.184 122.021 133.837 122.021C134.744 122.021 135.487 121.278 135.487 120.371V108.808C135.487 107.851 134.719 107.07 133.774 107.032L129.101 107.511V107.523Z" fill="white"></path>
    <path d="M139.631 105.496C139.48 105.546 139.329 105.571 139.165 105.571C138.648 105.571 138.233 105.987 138.233 106.503V113.393C138.233 115.03 139.568 116.353 141.193 116.353C141.47 116.353 141.697 116.126 141.697 115.862V106.1C141.697 105.584 141.319 105.143 140.827 105.055L139.631 105.483V105.496Z" fill="white"></path>
  </g>
  <defs>
    <clipPath id="clip0_1_21">
      <rect width="99.72" height="79.7055" fill="white" transform="translate(50 60)"></rect>
    </clipPath>
  </defs>
</svg>
